<svg style="max-height: 500px" color-interpolation-filters="sRGB" preserveAspectRatio="xMidYMid meet" viewBox="71.5 94.5 198 61.5" xmlns:xlink="http://www.w3.org/1999/xlink" xmlns="http://www.w3.org/2000/svg" version="1.0" data-v-0dd9719b="" width="198" height="61.5">   <g transform="translate(74.18499755859375,99.0997314453125)" class="icon-text-wrapper icon-svg-group iconsvg" fill="#b722ff" data-v-0dd9719b=""><g mask="url(#67392bb7-b9dd-439d-a9cd-49eef69e22ad)" transform="translate(0,5.134855270385742)" class="iconsvg-imagesvg"><g><rect class="image-rect" height="41.53082625578836" width="60" y="0" x="0" stroke-width="2" fill-opacity="0" fill="#b722ff"/> <svg style="overflow: visible;" class="image-svg-svg primary" height="41.53082625578836" width="60" y="0" x="0" filter="url(#colors2743794129)"><svg viewBox="0 0 65.4 46.5" xmlns="http://www.w3.org/2000/svg"><path stroke-miterlimit="10" stroke-width="4" stroke="#333" fill="none" d="M45.3 20c-2.1-2.1-2.1-5.6 0-7.8 3.1-3.1 10.2-2.4 10.2-2.4M45.3 20c2.1 2.1 5.6 2.1 7.8 0 3.1-3.1 2.4-10.2 2.4-10.2m0 .1S54.6 2 46.3 2h-17v34.1h34.1V19c0-8.2-7.9-9.1-7.9-9.1zM20 20c2.1-2.1 2.1-5.6 0-7.8-3-3-10.1-2.3-10.1-2.3m0 0s-.7 7.1 2.4 10.2c2.1 2.1 5.6 2.1 7.8 0M2 19v17h34.1V2H19c-8.3 0-9.2 7.9-9.2 7.9S2 10.8 2 19zm61.4 17.1H2v8.4h61.4v-8.4z"/></svg></svg> <defs><filter id="colors2743794129"><feColorMatrix class="icon-fecolormatrix" values="0 0 0 0 0.71484375  0 0 0 0 0.1328125  0 0 0 0 0.99609375  0 0 0 1 0" type="matrix"/></filter> <filter id="colorsf6398081801"><feColorMatrix class="icon-fecolormatrix" values="0 0 0 0 0.99609375  0 0 0 0 0.99609375  0 0 0 0 0.99609375  0 0 0 1 0" type="matrix"/></filter> <filter id="colorsb8764979865"><feColorMatrix class="icon-fecolormatrix" values="0 0 0 0 0  0 0 0 0 0  0 0 0 0 0  0 0 0 1 0" type="matrix"/></filter></defs></g><rect fill="url(#_HdL6IZqIS0wbzenvFVng)" style="pointer-events:none;" transform="translate(-6, -6)" height="53.530826568603516" width="72"/></g> <g transform="translate(67,0)"><g fill="url(#ac30c46c-5a74-42b5-9fc4-266fb87b74ef)" transform="translate(0,0)" class="tp-name iconsvg-namesvg" fill-rule="" data-gra="path-name"><g transform="scale(1)"><g><path transform="translate(-4.010000228881836, 38.5)" d="M4.01 0L4.01-38.5 13.75-38.5Q23.82-38.5 23.82-28.27L23.82-28.27Q23.82-22.93 20.93-19.94 18.04-16.94 12.71-16.94L12.71-16.94 8.86-16.94 8.86 0 4.01 0ZM8.86-20.57L12.38-20.57Q15.51-20.57 17.24-22.71 18.98-24.86 18.98-28.27L18.98-28.27Q18.98-31.52 17.3-33.19 15.62-34.87 12.38-34.87L12.38-34.87 8.86-34.87 8.86-20.57ZM32.62-33.27L28.21-33.27 28.21-37.67 32.62-37.67 32.62-33.27ZM32.62 0L28.21 0 28.21-28.6 32.62-28.6 32.62 0ZM45.27 0Q42.24 0 40.45-1.81 38.66-3.63 38.66-6.71L38.66-6.71 38.66-21.34Q38.66-24.8 40.48-26.7 42.3-28.6 45.76-28.6L45.76-28.6 51.86-28.6 51.86-25.3 45.87-25.3Q44.6-25.3 43.84-24.45 43.06-23.59 43.06-22.27L43.06-22.27 43.06-6.33Q43.06-5 43.86-4.15 44.66-3.3 45.92-3.3L45.92-3.3 51.86-3.3 51.86 0 45.27 0ZM60 0L55.6 0 55.6-38.5 60-38.5 60-16.94 68.53-28.6 72.66-28.6 64.52-16.94 73.04 0 68.91 0 61.93-14.41 60-11.82 60 0ZM80.14 0.39Q78.16 0.39 77.19-0.99 76.23-2.37 76.23-4.57L76.23-4.57 76.23-28.6 80.63-28.6 80.63-6Q80.63-4.46 80.85-3.79 81.07-3.14 81.9-3.14L81.9-3.14Q82.28-3.14 88.11-4.79L88.11-4.79 88.11-28.6 92.51-28.6 92.51 0 89.38 0 88.55-1.87Q87.67-1.54 87.23-1.43L87.23-1.43Q84.65-0.49 83.05-0.06 81.45 0.39 80.14 0.39L80.14 0.39ZM99.11 0L99.11-28.6 102.52-28.6 103.02-26.57 104.39-27.23Q106.15-28.11 107.33-28.55 108.52-28.98 109.73-28.98L109.73-28.98 109.73-25.74Q109.01-25.74 107.8-25.33 106.59-24.91 103.51-23.43L103.51-23.43 103.51 0 99.11 0ZM119.57 0Q116.55 0 114.76-1.81 112.97-3.63 112.97-6.71L112.97-6.71 112.97-21.34Q112.97-24.91 114.95-26.95 116.93-28.98 120.83-28.98L120.83-28.98Q124.74-28.98 126.69-26.95 128.64-24.91 128.64-21.34L128.64-21.34 128.64-18.81Q128.64-16.5 127.32-15.32 126-14.13 123.86-13.53L123.86-13.53 117.37-11.71 117.37-6.33Q117.37-5 118.17-4.15 118.97-3.3 120.23-3.3L120.23-3.3 126.17-3.3 126.17 0 119.57 0ZM117.37-15.18L120.72-16.11Q122.54-16.61 123.17-16.86 123.8-17.11 124.02-17.6 124.25-18.09 124.25-19.25L124.25-19.25 124.25-22.27Q124.25-24.04 123.34-24.86 122.43-25.68 120.83-25.68L120.83-25.68Q119.3-25.68 118.33-24.8 117.37-23.93 117.37-22.27L117.37-22.27 117.37-15.18Z"/></g>       </g></g> <g transform="translate(12.189998626708984,44.8900032043457)" fill="url(#faca5f41-6f5f-4db6-96cc-26c39f6a75b4)" class="tp-slogan iconsvg-slogansvg" fill-rule="" data-gra="path-slogan">  <g transform="scale(1, 1)"><g transform="scale(1)"><path transform="translate(-0.9148924154289264, 6.790534816739142)" d="M0.91 0L0.91-6.67L2.96-6.67Q3.51-6.67 3.96-6.57Q4.42-6.47 4.74-6.24Q5.06-6.01 5.24-5.63Q5.42-5.26 5.42-4.71L5.42-4.71Q5.42-4.18 5.24-3.79Q5.06-3.41 4.74-3.15Q4.41-2.90 3.96-2.77Q3.51-2.64 2.96-2.64L2.96-2.64L1.76-2.64L1.76 0L0.91 0ZM1.76-3.33L2.86-3.33Q3.73-3.33 4.15-3.66Q4.57-4.00 4.57-4.71L4.57-4.71Q4.57-5.43 4.15-5.71Q3.72-5.99 2.86-5.99L2.86-5.99L1.76-5.99L1.76-3.33ZM7.77 0L7.77-6.67L8.61-6.67L8.61 0L7.77 0ZM11.06-3.33L11.06-3.33Q11.06-4.14 11.28-4.78Q11.50-5.42 11.90-5.87Q12.30-6.31 12.84-6.55Q13.39-6.79 14.03-6.79L14.03-6.79Q14.64-6.79 15.09-6.54Q15.55-6.29 15.85-5.97L15.85-5.97L15.37-5.43Q15.10-5.71 14.78-5.88Q14.46-6.05 14.04-6.05L14.04-6.05Q13.56-6.05 13.17-5.86Q12.79-5.67 12.51-5.32Q12.24-4.97 12.08-4.47Q11.93-3.97 11.93-3.35L11.93-3.35Q11.93-2.72 12.08-2.22Q12.23-1.72 12.49-1.36Q12.76-1.01 13.14-0.81Q13.52-0.62 14.00-0.62L14.00-0.62Q14.48-0.62 14.84-0.81Q15.20-1.01 15.53-1.36L15.53-1.36L16.01-0.84Q15.61-0.39 15.11-0.13Q14.62 0.12 13.97 0.12L13.97 0.12Q13.34 0.12 12.81-0.11Q12.28-0.35 11.89-0.79Q11.49-1.23 11.28-1.88Q11.06-2.52 11.06-3.33ZM18.25 0L18.25-6.67L19.09-6.67L19.09-3.32L19.12-3.32L21.90-6.67L22.85-6.67L20.77-4.13L23.18 0L22.23 0L20.24-3.47L19.09-2.11L19.09 0L18.25 0ZM29.26 0L29.26-2.58L27.26-6.67L28.17-6.67L29.03-4.79Q29.19-4.42 29.35-4.07Q29.50-3.71 29.67-3.33L29.67-3.33L29.71-3.33Q29.89-3.71 30.06-4.07Q30.23-4.42 30.38-4.79L30.38-4.79L31.24-6.67L32.12-6.67L30.12-2.58L30.12 0L29.26 0ZM36.34 0.12L36.34 0.12Q35.71 0.12 35.19-0.12Q34.67-0.37 34.29-0.82Q33.91-1.27 33.71-1.92Q33.50-2.56 33.50-3.36L33.50-3.36Q33.50-4.17 33.71-4.80Q33.91-5.44 34.29-5.88Q34.67-6.32 35.19-6.56Q35.71-6.79 36.34-6.79L36.34-6.79Q36.97-6.79 37.50-6.55Q38.02-6.31 38.40-5.87Q38.78-5.43 38.99-4.79Q39.20-4.16 39.20-3.36L39.20-3.36Q39.20-2.56 38.99-1.92Q38.78-1.27 38.40-0.82Q38.02-0.37 37.50-0.12Q36.97 0.12 36.34 0.12ZM36.34-0.62L36.34-0.62Q36.79-0.62 37.15-0.81Q37.51-1.01 37.77-1.37Q38.03-1.73 38.17-2.23Q38.32-2.73 38.32-3.36L38.32-3.36Q38.32-3.98 38.17-4.48Q38.03-4.98 37.77-5.33Q37.51-5.67 37.15-5.86Q36.79-6.05 36.34-6.05L36.34-6.05Q35.90-6.05 35.54-5.86Q35.17-5.67 34.92-5.33Q34.66-4.98 34.51-4.48Q34.37-3.98 34.37-3.36L34.37-3.36Q34.37-2.73 34.51-2.23Q34.66-1.73 34.92-1.37Q35.17-1.01 35.54-0.81Q35.90-0.62 36.34-0.62ZM41.60-2.75L41.60-6.67L42.45-6.67L42.45-2.73Q42.45-2.13 42.57-1.73Q42.69-1.32 42.90-1.08Q43.11-0.83 43.39-0.73Q43.68-0.62 44.00-0.62L44.00-0.62Q44.34-0.62 44.62-0.73Q44.91-0.83 45.12-1.08Q45.33-1.32 45.46-1.73Q45.58-2.13 45.58-2.73L45.58-2.73L45.58-6.67L46.39-6.67L46.39-2.75Q46.39-1.95 46.21-1.40Q46.03-0.85 45.71-0.51Q45.38-0.17 44.95-0.03Q44.51 0.12 44.00 0.12L44.00 0.12Q43.49 0.12 43.05-0.03Q42.61-0.17 42.29-0.51Q41.97-0.85 41.79-1.40Q41.60-1.95 41.60-2.75L41.60-2.75ZM50.03-5.99L50.03-3.51L51.15-3.51Q51.94-3.51 52.35-3.83Q52.77-4.15 52.77-4.80L52.77-4.80Q52.77-5.46 52.35-5.72Q51.94-5.99 51.15-5.99L51.15-5.99L50.03-5.99ZM53.81 0L52.85 0L51.24-2.82L50.03-2.82L50.03 0L49.19 0L49.19-6.67L51.27-6.67Q51.78-6.67 52.21-6.57Q52.65-6.48 52.96-6.25Q53.27-6.03 53.44-5.67Q53.61-5.32 53.61-4.80L53.61-4.80Q53.61-4.02 53.21-3.55Q52.80-3.08 52.12-2.91L52.12-2.91L53.81 0ZM59.15 0L59.15-6.67L61.19-6.67Q61.74-6.67 62.20-6.57Q62.66-6.47 62.98-6.24Q63.30-6.01 63.48-5.63Q63.65-5.26 63.65-4.71L63.65-4.71Q63.65-4.18 63.48-3.79Q63.30-3.41 62.97-3.15Q62.65-2.90 62.19-2.77Q61.74-2.64 61.19-2.64L61.19-2.64L59.99-2.64L59.99 0L59.15 0ZM59.99-3.33L61.09-3.33Q61.97-3.33 62.39-3.66Q62.81-4.00 62.81-4.71L62.81-4.71Q62.81-5.43 62.38-5.71Q61.96-5.99 61.09-5.99L61.09-5.99L59.99-5.99L59.99-3.33ZM66.01 0L66.01-6.67L66.85-6.67L66.85 0L66.01 0ZM69.29-3.33L69.29-3.33Q69.29-4.14 69.52-4.78Q69.74-5.42 70.14-5.87Q70.53-6.31 71.08-6.55Q71.62-6.79 72.26-6.79L72.26-6.79Q72.87-6.79 73.33-6.54Q73.79-6.29 74.08-5.97L74.08-5.97L73.60-5.43Q73.34-5.71 73.02-5.88Q72.70-6.05 72.27-6.05L72.27-6.05Q71.79-6.05 71.41-5.86Q71.02-5.67 70.75-5.32Q70.47-4.97 70.32-4.47Q70.17-3.97 70.17-3.35L70.17-3.35Q70.17-2.72 70.31-2.22Q70.46-1.72 70.73-1.36Q70.99-1.01 71.37-0.81Q71.75-0.62 72.23-0.62L72.23-0.62Q72.72-0.62 73.08-0.81Q73.44-1.01 73.77-1.36L73.77-1.36L74.24-0.84Q73.85-0.39 73.35-0.13Q72.85 0.12 72.21 0.12L72.21 0.12Q71.58 0.12 71.05-0.11Q70.51-0.35 70.12-0.79Q69.73-1.23 69.51-1.88Q69.29-2.52 69.29-3.33ZM77.68 0L77.68-5.96L75.67-5.96L75.67-6.67L80.55-6.67L80.55-5.96L78.54-5.96L78.54 0L77.68 0ZM82.72-2.75L82.72-6.67L83.56-6.67L83.56-2.73Q83.56-2.13 83.68-1.73Q83.81-1.32 84.01-1.08Q84.22-0.83 84.51-0.73Q84.79-0.62 85.12-0.62L85.12-0.62Q85.45-0.62 85.74-0.73Q86.02-0.83 86.24-1.08Q86.45-1.32 86.57-1.73Q86.69-2.13 86.69-2.73L86.69-2.73L86.69-6.67L87.51-6.67L87.51-2.75Q87.51-1.95 87.32-1.40Q87.14-0.85 86.82-0.51Q86.50-0.17 86.06-0.03Q85.63 0.12 85.12 0.12L85.12 0.12Q84.61 0.12 84.17-0.03Q83.72-0.17 83.40-0.51Q83.08-0.85 82.90-1.40Q82.72-1.95 82.72-2.75L82.72-2.75ZM91.15-5.99L91.15-3.51L92.27-3.51Q93.05-3.51 93.47-3.83Q93.88-4.15 93.88-4.80L93.88-4.80Q93.88-5.46 93.47-5.72Q93.05-5.99 92.27-5.99L92.27-5.99L91.15-5.99ZM94.92 0L93.97 0L92.36-2.82L91.15-2.82L91.15 0L90.31 0L90.31-6.67L92.39-6.67Q92.90-6.67 93.33-6.57Q93.76-6.48 94.07-6.25Q94.38-6.03 94.55-5.67Q94.73-5.32 94.73-4.80L94.73-4.80Q94.73-4.02 94.32-3.55Q93.91-3.08 93.23-2.91L93.23-2.91L94.92 0ZM97.21 0L97.21-6.67L101.05-6.67L101.05-5.96L98.06-5.96L98.06-3.86L100.59-3.86L100.59-3.14L98.06-3.14L98.06-0.72L101.16-0.72L101.16 0L97.21 0Z"/></g></g></g></g></g><defs><linearGradient id="faca5f41-6f5f-4db6-96cc-26c39f6a75b4" y2="0" x2="0" y1="1" x1="0"><stop stop-color="#b722ff" offset="0%"/><stop stop-color="#22d4fe" offset="100%"/></linearGradient><filter filterUnits="objectBoundingBox" id="42443b3f1de60f6b6fd3b6a9844b4764"><feColorMatrix values="0 0 0 0 0.99609375  0 0 0 0 0.99609375  0 0 0 0 0.99609375  0 0 0 1 0" type="matrix"/></filter><linearGradient id="ac30c46c-5a74-42b5-9fc4-266fb87b74ef" y2="0" x2="0" y1="1" x1="0"><stop stop-color="#b722ff" offset="0%"/><stop stop-color="#22d4fe" offset="100%"/></linearGradient><filter filterUnits="objectBoundingBox" id="42443b3f1de60f6b6fd3b6a9844b4764"><feColorMatrix values="0 0 0 0 0.99609375  0 0 0 0 0.99609375  0 0 0 0 0.99609375  0 0 0 1 0" type="matrix"/></filter></defs><defs><filter filterUnits="userSpaceOnUse" id="f13e26f2-69c9-40de-a5a1-5cf37b9103c4"><feColorMatrix values="0 0 0 0 0.99609375  0 0 0 0 0.99609375  0 0 0 0 0.99609375  0 0 0 1 0" type="matrix"/></filter><linearGradient id="_HdL6IZqIS0wbzenvFVng" y2="0" x2="0" y1="1" x1="0"><stop stop-color="#b722ff" offset="0%"/><stop stop-color="#22d4fe" offset="100%"/></linearGradient><filter filterUnits="objectBoundingBox" id="42443b3f1de60f6b6fd3b6a9844b4764"><feColorMatrix values="0 0 0 0 0.99609375  0 0 0 0 0.99609375  0 0 0 0 0.99609375  0 0 0 1 0" type="matrix"/></filter></defs><mask id="67392bb7-b9dd-439d-a9cd-49eef69e22ad"><g filter="url(#f13e26f2-69c9-40de-a5a1-5cf37b9103c4)" class="iconsvg-imagesvg"><g><rect class="image-rect" height="41.53082625578836" width="60" y="0" x="0" stroke-width="2" fill-opacity="0" fill="#b722ff"/> <svg style="overflow: visible;" class="image-svg-svg primary" height="41.53082625578836" width="60" y="0" x="0"><svg viewBox="0 0 65.4 46.5" xmlns="http://www.w3.org/2000/svg"><path stroke-miterlimit="10" stroke-width="4" stroke="#333" fill="none" d="M45.3 20c-2.1-2.1-2.1-5.6 0-7.8 3.1-3.1 10.2-2.4 10.2-2.4M45.3 20c2.1 2.1 5.6 2.1 7.8 0 3.1-3.1 2.4-10.2 2.4-10.2m0 .1S54.6 2 46.3 2h-17v34.1h34.1V19c0-8.2-7.9-9.1-7.9-9.1zM20 20c2.1-2.1 2.1-5.6 0-7.8-3-3-10.1-2.3-10.1-2.3m0 0s-.7 7.1 2.4 10.2c2.1 2.1 5.6 2.1 7.8 0M2 19v17h34.1V2H19c-8.3 0-9.2 7.9-9.2 7.9S2 10.8 2 19zm61.4 17.1H2v8.4h61.4v-8.4z"/></svg></svg> <defs><filter id="colors2743794129"><feColorMatrix class="icon-fecolormatrix" values="0 0 0 0 0.71484375  0 0 0 0 0.1328125  0 0 0 0 0.99609375  0 0 0 1 0" type="matrix"/></filter> <filter id="colorsf6398081801"><feColorMatrix class="icon-fecolormatrix" values="0 0 0 0 0.99609375  0 0 0 0 0.99609375  0 0 0 0 0.99609375  0 0 0 1 0" type="matrix"/></filter> <filter id="colorsb8764979865"><feColorMatrix class="icon-fecolormatrix" values="0 0 0 0 0  0 0 0 0 0  0 0 0 0 0  0 0 0 1 0" type="matrix"/></filter></defs></g></g></mask></svg>